<mxfile host="app.diagrams.net" modified="2023-06-12T21:43:54.650Z" agent="Mozilla/5.0 (Windows NT 10.0; Win64; x64) AppleWebKit/537.36 (KHTML, like Gecko) Chrome/114.0.0.0 Safari/537.36" etag="fRtKd3CzxnvqZTPrZJiW" version="21.3.8" type="github">
  <diagram name="Page-1" id="LiACkdrKsVlJ2LA46LZx">
    <mxGraphModel dx="1050" dy="541" grid="1" gridSize="10" guides="1" tooltips="1" connect="1" arrows="1" fold="1" page="1" pageScale="1" pageWidth="850" pageHeight="1100" math="0" shadow="0">
      <root>
        <mxCell id="0" />
        <mxCell id="1" parent="0" />
        <mxCell id="oJ0OpxyHA3z6YtcP41Ly-1" value="Web Server" style="rounded=0;whiteSpace=wrap;html=1;labelBackgroundColor=none;fillColor=#09555B;strokeColor=#BAC8D3;fontColor=#EEEEEE;" vertex="1" parent="1">
          <mxGeometry x="350" y="40" width="120" height="40" as="geometry" />
        </mxCell>
        <mxCell id="oJ0OpxyHA3z6YtcP41Ly-2" value="" style="endArrow=none;html=1;rounded=0;labelBackgroundColor=none;fontColor=default;strokeColor=#0B4D6A;" edge="1" parent="1" source="oJ0OpxyHA3z6YtcP41Ly-14">
          <mxGeometry width="50" height="50" relative="1" as="geometry">
            <mxPoint x="409.5" y="160" as="sourcePoint" />
            <mxPoint x="409.5" y="80" as="targetPoint" />
            <Array as="points">
              <mxPoint x="409.5" y="80" />
            </Array>
          </mxGeometry>
        </mxCell>
        <mxCell id="oJ0OpxyHA3z6YtcP41Ly-5" value="" style="endArrow=none;html=1;rounded=0;labelBackgroundColor=none;fontColor=default;strokeColor=#0B4D6A;" edge="1" parent="1">
          <mxGeometry width="50" height="50" relative="1" as="geometry">
            <mxPoint x="310" y="210" as="sourcePoint" />
            <mxPoint x="310" y="160" as="targetPoint" />
          </mxGeometry>
        </mxCell>
        <mxCell id="oJ0OpxyHA3z6YtcP41Ly-6" value="" style="endArrow=none;html=1;rounded=0;labelBackgroundColor=none;fontColor=default;strokeColor=#0B4D6A;" edge="1" parent="1">
          <mxGeometry width="50" height="50" relative="1" as="geometry">
            <mxPoint x="510" y="210" as="sourcePoint" />
            <mxPoint x="510" y="160" as="targetPoint" />
          </mxGeometry>
        </mxCell>
        <mxCell id="oJ0OpxyHA3z6YtcP41Ly-9" value="Google sheets" style="rounded=0;whiteSpace=wrap;html=1;labelBackgroundColor=none;fillColor=#09555B;strokeColor=#BAC8D3;fontColor=#EEEEEE;" vertex="1" parent="1">
          <mxGeometry x="450" y="210" width="120" height="60" as="geometry" />
        </mxCell>
        <mxCell id="oJ0OpxyHA3z6YtcP41Ly-10" style="edgeStyle=orthogonalEdgeStyle;rounded=0;orthogonalLoop=1;jettySize=auto;html=1;exitX=0.5;exitY=1;exitDx=0;exitDy=0;labelBackgroundColor=none;fontColor=default;strokeColor=#0B4D6A;" edge="1" parent="1" source="oJ0OpxyHA3z6YtcP41Ly-9" target="oJ0OpxyHA3z6YtcP41Ly-9">
          <mxGeometry relative="1" as="geometry" />
        </mxCell>
        <mxCell id="oJ0OpxyHA3z6YtcP41Ly-12" value="Google sheets" style="rounded=0;whiteSpace=wrap;html=1;labelBackgroundColor=none;fillColor=#09555B;strokeColor=#BAC8D3;fontColor=#EEEEEE;" vertex="1" parent="1">
          <mxGeometry x="450" y="210" width="120" height="60" as="geometry" />
        </mxCell>
        <mxCell id="oJ0OpxyHA3z6YtcP41Ly-57" style="edgeStyle=orthogonalEdgeStyle;rounded=0;orthogonalLoop=1;jettySize=auto;html=1;exitX=0.5;exitY=1;exitDx=0;exitDy=0;entryX=0.857;entryY=0;entryDx=0;entryDy=0;entryPerimeter=0;strokeColor=#0B4D6A;" edge="1" parent="1" source="oJ0OpxyHA3z6YtcP41Ly-13" target="oJ0OpxyHA3z6YtcP41Ly-31">
          <mxGeometry relative="1" as="geometry" />
        </mxCell>
        <mxCell id="oJ0OpxyHA3z6YtcP41Ly-58" style="edgeStyle=orthogonalEdgeStyle;rounded=0;orthogonalLoop=1;jettySize=auto;html=1;exitX=0.5;exitY=1;exitDx=0;exitDy=0;entryX=0.139;entryY=0.002;entryDx=0;entryDy=0;entryPerimeter=0;strokeColor=#0B4D6A;" edge="1" parent="1" source="oJ0OpxyHA3z6YtcP41Ly-13" target="oJ0OpxyHA3z6YtcP41Ly-31">
          <mxGeometry relative="1" as="geometry" />
        </mxCell>
        <mxCell id="oJ0OpxyHA3z6YtcP41Ly-13" value="Blazor client" style="rounded=0;whiteSpace=wrap;html=1;labelBackgroundColor=none;fillColor=#09555B;strokeColor=#BAC8D3;fontColor=#EEEEEE;" vertex="1" parent="1">
          <mxGeometry x="250" y="210" width="120" height="60" as="geometry" />
        </mxCell>
        <mxCell id="oJ0OpxyHA3z6YtcP41Ly-17" value="" style="endArrow=none;html=1;rounded=0;labelBackgroundColor=none;fontColor=default;strokeColor=#0B4D6A;" edge="1" parent="1">
          <mxGeometry width="50" height="50" relative="1" as="geometry">
            <mxPoint x="400" y="360" as="sourcePoint" />
            <mxPoint x="400" y="320" as="targetPoint" />
          </mxGeometry>
        </mxCell>
        <mxCell id="oJ0OpxyHA3z6YtcP41Ly-63" value="" style="edgeStyle=orthogonalEdgeStyle;rounded=0;orthogonalLoop=1;jettySize=auto;html=1;strokeColor=#0B4D6A;" edge="1" parent="1" source="oJ0OpxyHA3z6YtcP41Ly-31" target="oJ0OpxyHA3z6YtcP41Ly-43">
          <mxGeometry relative="1" as="geometry" />
        </mxCell>
        <mxCell id="oJ0OpxyHA3z6YtcP41Ly-31" value="&amp;nbsp;Navbar&amp;nbsp; &amp;nbsp; &amp;nbsp; &amp;nbsp; &amp;nbsp; &amp;nbsp; &amp;nbsp; &amp;nbsp; &amp;nbsp; &amp;nbsp; &amp;nbsp; &amp;nbsp; &amp;nbsp; &amp;nbsp; &amp;nbsp; &amp;nbsp; Static Assets&lt;br&gt;&amp;nbsp; &amp;nbsp; &amp;nbsp;(C# razor)&amp;nbsp; &amp;nbsp; &amp;nbsp; &amp;nbsp; &amp;nbsp; &amp;nbsp; &amp;nbsp; &amp;nbsp; &amp;nbsp; &amp;nbsp; &amp;nbsp; &amp;nbsp; &amp;nbsp; (HTML, CSS, JS)" style="rounded=0;whiteSpace=wrap;html=1;labelBackgroundColor=none;fillColor=#09555B;strokeColor=#BAC8D3;fontColor=#EEEEEE;" vertex="1" parent="1">
          <mxGeometry x="160" y="360" width="280" height="80" as="geometry" />
        </mxCell>
        <mxCell id="oJ0OpxyHA3z6YtcP41Ly-64" value="" style="edgeStyle=orthogonalEdgeStyle;rounded=0;orthogonalLoop=1;jettySize=auto;html=1;strokeColor=#0B4D6A;" edge="1" parent="1" source="oJ0OpxyHA3z6YtcP41Ly-43" target="oJ0OpxyHA3z6YtcP41Ly-47">
          <mxGeometry relative="1" as="geometry" />
        </mxCell>
        <mxCell id="oJ0OpxyHA3z6YtcP41Ly-43" value="Components&lt;br&gt;(C#, Razor)" style="rounded=0;whiteSpace=wrap;html=1;strokeColor=#BAC8D3;fontColor=#EEEEEE;fillColor=#09555B;" vertex="1" parent="1">
          <mxGeometry x="240" y="490" width="120" height="60" as="geometry" />
        </mxCell>
        <mxCell id="oJ0OpxyHA3z6YtcP41Ly-44" style="edgeStyle=orthogonalEdgeStyle;rounded=0;orthogonalLoop=1;jettySize=auto;html=1;exitX=0.5;exitY=1;exitDx=0;exitDy=0;strokeColor=#0B4D6A;" edge="1" parent="1" source="oJ0OpxyHA3z6YtcP41Ly-31" target="oJ0OpxyHA3z6YtcP41Ly-31">
          <mxGeometry relative="1" as="geometry" />
        </mxCell>
        <mxCell id="oJ0OpxyHA3z6YtcP41Ly-68" value="" style="edgeStyle=orthogonalEdgeStyle;rounded=0;orthogonalLoop=1;jettySize=auto;html=1;strokeColor=#0B4D6A;" edge="1" parent="1" source="oJ0OpxyHA3z6YtcP41Ly-47" target="oJ0OpxyHA3z6YtcP41Ly-67">
          <mxGeometry relative="1" as="geometry" />
        </mxCell>
        <mxCell id="oJ0OpxyHA3z6YtcP41Ly-47" value="&amp;nbsp; &amp;nbsp; &amp;nbsp; &amp;nbsp; &amp;nbsp; &amp;nbsp;Pages&amp;nbsp; &amp;nbsp; &amp;nbsp; &amp;nbsp; &amp;nbsp; &amp;nbsp; &amp;nbsp; &amp;nbsp; &amp;nbsp; &amp;nbsp; &amp;nbsp; &amp;nbsp; &amp;nbsp;Models &amp;amp; Resources&lt;br&gt;(C#, Razor)&amp;nbsp; &amp;nbsp; &amp;nbsp; &amp;nbsp; &amp;nbsp; &amp;nbsp; &amp;nbsp; &amp;nbsp; &amp;nbsp; &amp;nbsp; &amp;nbsp; &amp;nbsp; &amp;nbsp;(C#, Resx)" style="rounded=0;whiteSpace=wrap;html=1;strokeColor=#BAC8D3;fontColor=#EEEEEE;fillColor=#09555B;" vertex="1" parent="1">
          <mxGeometry x="160" y="600" width="280" height="60" as="geometry" />
        </mxCell>
        <mxCell id="oJ0OpxyHA3z6YtcP41Ly-52" style="edgeStyle=orthogonalEdgeStyle;rounded=0;orthogonalLoop=1;jettySize=auto;html=1;exitX=0.5;exitY=1;exitDx=0;exitDy=0;strokeColor=#0B4D6A;entryX=0.5;entryY=0;entryDx=0;entryDy=0;" edge="1" parent="1" source="oJ0OpxyHA3z6YtcP41Ly-14" target="oJ0OpxyHA3z6YtcP41Ly-12">
          <mxGeometry relative="1" as="geometry">
            <mxPoint x="410" y="160" as="targetPoint" />
          </mxGeometry>
        </mxCell>
        <mxCell id="oJ0OpxyHA3z6YtcP41Ly-55" style="edgeStyle=orthogonalEdgeStyle;rounded=0;orthogonalLoop=1;jettySize=auto;html=1;exitX=0.5;exitY=1;exitDx=0;exitDy=0;entryX=0.5;entryY=0;entryDx=0;entryDy=0;strokeColor=#0B4D6A;" edge="1" parent="1" source="oJ0OpxyHA3z6YtcP41Ly-14" target="oJ0OpxyHA3z6YtcP41Ly-13">
          <mxGeometry relative="1" as="geometry" />
        </mxCell>
        <mxCell id="oJ0OpxyHA3z6YtcP41Ly-14" value="Web Server" style="rounded=0;whiteSpace=wrap;html=1;labelBackgroundColor=none;fillColor=#09555B;strokeColor=#BAC8D3;fontColor=#EEEEEE;" vertex="1" parent="1">
          <mxGeometry x="350" y="20" width="120" height="60" as="geometry" />
        </mxCell>
        <mxCell id="oJ0OpxyHA3z6YtcP41Ly-70" value="" style="edgeStyle=orthogonalEdgeStyle;rounded=0;orthogonalLoop=1;jettySize=auto;html=1;strokeColor=#0B4D6A;" edge="1" parent="1" source="oJ0OpxyHA3z6YtcP41Ly-67" target="oJ0OpxyHA3z6YtcP41Ly-69">
          <mxGeometry relative="1" as="geometry" />
        </mxCell>
        <mxCell id="oJ0OpxyHA3z6YtcP41Ly-67" value="CSS&lt;br&gt;(Styling Rules)" style="rounded=0;whiteSpace=wrap;html=1;strokeColor=#BAC8D3;fontColor=#EEEEEE;fillColor=#09555B;" vertex="1" parent="1">
          <mxGeometry x="240" y="710" width="120" height="60" as="geometry" />
        </mxCell>
        <mxCell id="oJ0OpxyHA3z6YtcP41Ly-69" value="Javascript&lt;br&gt;(Client side)" style="rounded=0;whiteSpace=wrap;html=1;strokeColor=#BAC8D3;fontColor=#EEEEEE;fillColor=#09555B;" vertex="1" parent="1">
          <mxGeometry x="240" y="820" width="120" height="60" as="geometry" />
        </mxCell>
      </root>
    </mxGraphModel>
  </diagram>
</mxfile>
